<svg xmlns="http://www.w3.org/2000/svg" xmlns:xlink="http://www.w3.org/1999/xlink" width="34.818" height="55.04" viewBox="0 0 34.818 55.04">
  <defs>
    <clipPath id="clip-path">
      <path id="Path_80" data-name="Path 80" d="M0,24.02H34.818V-31.02H0Z" transform="translate(0 31.02)" fill="none"/>
    </clipPath>
  </defs>
  <g id="Group_26" data-name="Group 26" transform="translate(0 31.02)">
    <g id="Group_31" data-name="Group 31" transform="translate(0 -31.02)" clip-path="url(#clip-path)">
      <g id="Group_26-2" data-name="Group 26" transform="translate(13.477 0.001)">
        <path id="Path_75" data-name="Path 75" d="M2.206,4.411A5.061,5.061,0,0,1-2.849-.644,5.059,5.059,0,0,1,2.206-5.7,5.059,5.059,0,0,1,7.261-.644,5.061,5.061,0,0,1,2.206,4.411m0-8.985A3.936,3.936,0,0,0-1.726-.644,3.936,3.936,0,0,0,2.206,3.288,3.937,3.937,0,0,0,6.138-.644a3.937,3.937,0,0,0-3.932-3.93" transform="translate(2.849 5.697)" fill="#292928"/>
      </g>
      <g id="Group_27" data-name="Group 27" transform="translate(0 12.357)">
        <path id="Path_76" data-name="Path 76" d="M8.245,8.855a.519.519,0,0,1-.09-.007A.562.562,0,0,1,7.689,8.2L9.964-5.748a3.934,3.934,0,0,0-.884-3.18,3.932,3.932,0,0,0-3-1.384H3.39a1.691,1.691,0,0,0-1.1.4L-5.568-3.168a1.684,1.684,0,0,0-.449.609L-9.371,5.182a1.779,1.779,0,0,0,.743,2.3,1.714,1.714,0,0,0,2.3-.846l3.2-7.385a.561.561,0,0,1,.149-.2L.839-4.221a.56.56,0,0,1,.791.06.562.562,0,0,1-.06.791L-2.149-.18-5.3,7.082A2.868,2.868,0,0,1-9.122,8.494,2.921,2.921,0,0,1-10.4,4.736l3.355-7.741A2.783,2.783,0,0,1-6.3-4.02l7.862-6.739a2.81,2.81,0,0,1,1.828-.676H6.084a5.046,5.046,0,0,1,3.852,1.78,5.041,5.041,0,0,1,1.136,4.088L8.8,8.383a.563.563,0,0,1-.554.472" transform="translate(10.647 11.435)" fill="#292928"/>
      </g>
      <g id="Group_28" data-name="Group 28" transform="translate(0.025 27.269)">
        <path id="Path_77" data-name="Path 77" d="M1.213,12.119a2.794,2.794,0,0,1-2.044-.884,2.9,2.9,0,0,1-.1-3.746L6.415-1.949,8.482-15.177a.565.565,0,0,1,.642-.468A.564.564,0,0,1,9.593-15L7.5-1.632a.569.569,0,0,1-.112.257L-.04,8.179a1.769,1.769,0,0,0,.021,2.284,1.734,1.734,0,0,0,2.564-.115L10.3.368a2.825,2.825,0,0,0,.522-1.1l1.62-7.1a.552.552,0,0,1,.671-.422.562.562,0,0,1,.424.672l-1.62,7.1a3.989,3.989,0,0,1-.727,1.54L3.431,11.035a2.789,2.789,0,0,1-2.218,1.084" transform="translate(1.566 15.651)" fill="#292928"/>
      </g>
      <g id="Group_29" data-name="Group 29" transform="translate(10.013 19.435)">
        <path id="Path_78" data-name="Path 78" d="M6.658,15.539a2.825,2.825,0,0,1-2.688-2L.72,2.7-7.531-7.869a5.074,5.074,0,0,1-1.008-3.889l1.224-7.834a.561.561,0,0,1,.641-.468.562.562,0,0,1,.468.642l-1.223,7.834a3.942,3.942,0,0,0,.784,3.025L1.671,2.094a.568.568,0,0,1,.094.185L5.046,13.214a1.726,1.726,0,0,0,2.415,1,1.792,1.792,0,0,0,.774-2.1L4.946,1.154A2.819,2.819,0,0,0,4.627.46L-.194-7.114A.562.562,0,0,1-.022-7.89a.562.562,0,0,1,.775.172L5.574-.143a3.821,3.821,0,0,1,.447.976L9.309,11.795A2.9,2.9,0,0,1,7.987,15.2a2.849,2.849,0,0,1-1.329.334" transform="translate(8.599 20.067)" fill="#292928"/>
      </g>
      <g id="Group_30" data-name="Group 30" transform="translate(19.527 13.864)">
        <path id="Path_79" data-name="Path 79" d="M5.448,6.7a2.8,2.8,0,0,1-.889-.145L-2.18,4.3a2.806,2.806,0,0,1-1.278-.875l-3-3.625a.561.561,0,0,1,.076-.79.56.56,0,0,1,.791.075l3,3.625a1.688,1.688,0,0,0,.765.525L4.914,5.485A1.71,1.71,0,0,0,7.045,4.419,1.683,1.683,0,0,0,5.98,2.288L-.148.245A.569.569,0,0,1-.4.073l-6.5-7.8a.56.56,0,0,1,.071-.79.559.559,0,0,1,.791.071L.357-.769,6.335,1.223A2.808,2.808,0,0,1,5.448,6.7" transform="translate(7.036 8.646)" fill="#292928"/>
      </g>
    </g>
  </g>
</svg>
